<svg width="577" height="433" viewBox="0 0 577 433" fill="none" xmlns="http://www.w3.org/2000/svg">
<path d="M179.303 352.727C212.336 352.727 245.369 352.727 278.403 352.727C311.328 352.727 344.253 352.727 377.142 352.727C395.75 352.727 414.394 352.727 433.003 352.727C433.688 352.727 433.688 351.646 433.003 351.646C399.969 351.646 366.936 351.646 333.903 351.646C300.978 351.646 268.053 351.646 235.164 351.646C216.555 351.646 197.911 351.646 179.303 351.646C178.618 351.646 178.618 352.727 179.303 352.727Z" fill="#919B9B"/>
<path d="M439.674 330.307C439.385 340.688 440.431 351.069 442.811 361.197C442.956 361.882 444.001 361.594 443.857 360.909C441.513 350.889 440.467 340.616 440.792 330.307C440.756 329.623 439.674 329.623 439.674 330.307Z" fill="#919B9B"/>
<path d="M482.624 331.137C483.634 340.724 483.021 350.42 480.821 359.792C480.677 360.476 481.687 360.765 481.867 360.08C484.103 350.6 484.752 340.832 483.706 331.137C483.634 330.452 482.552 330.452 482.624 331.137Z" fill="#919B9B"/>
<path d="M443.244 362.207C455.722 365.378 468.92 364.946 481.146 360.909C481.795 360.693 481.506 359.647 480.857 359.864C468.776 363.829 455.83 364.297 443.532 361.161C442.847 361.017 442.559 362.062 443.244 362.207Z" fill="#919B9B"/>
<path d="M440.179 330.812C454.207 333.804 468.74 333.732 482.732 330.632C483.417 330.488 483.129 329.442 482.444 329.587C468.632 332.65 454.279 332.686 440.467 329.767C439.782 329.623 439.493 330.668 440.179 330.812Z" fill="#919B9B"/>
<path d="M448.726 331.209C446.851 326.991 448.546 321.837 449.952 317.692C451.394 313.403 453.45 309.33 455.974 305.581C455.686 305.617 455.397 305.653 455.109 305.689C455.938 306.627 456.84 307.275 457.958 307.816C458.391 307.996 458.859 307.708 458.751 307.203C458.319 305.257 457.561 303.347 458.427 301.4C459.04 300.031 459.905 298.661 460.627 297.363C460.374 297.435 460.122 297.507 459.869 297.543C460.626 298.012 461.384 298.445 462.141 298.913C462.646 299.238 463.079 298.625 462.898 298.156C462.141 296.498 461.636 294.84 462.682 293.182C463.295 292.173 464.089 291.272 464.774 290.335C466.288 288.316 467.875 286.298 469.462 284.315C472.491 280.531 475.629 276.854 478.874 273.25C478.586 273.214 478.297 273.178 478.009 273.142C482.625 279.197 485.546 286.442 486.339 294.011C486.736 297.652 486.628 301.4 485.978 305.005C485.654 306.843 485.185 308.645 484.608 310.411C484.5 310.772 484.356 311.132 484.247 311.456C483.851 312.466 483.202 312.898 482.156 313.115C481.435 313.259 481.038 313.151 480.425 313.619C480.136 313.835 480.064 314.196 480.317 314.484C481.11 315.313 481.435 315.457 481.146 316.575C480.966 317.296 480.533 318.053 480.208 318.773C479.559 320.215 478.838 321.621 478.081 322.991C476.53 325.802 474.763 328.469 472.78 330.992C472.347 331.533 473.104 332.29 473.537 331.749C477.36 326.847 480.389 321.477 482.661 315.71C482.733 315.529 482.661 315.313 482.516 315.169C482.048 314.7 481.579 314.196 481.074 313.727C481.038 314.016 481.002 314.304 480.966 314.592C481.795 314.016 482.733 314.412 483.598 314.052C484.284 313.799 484.644 313.295 484.933 312.646C485.726 310.952 486.231 309.005 486.664 307.203C487.565 303.238 487.854 299.165 487.565 295.129C486.952 286.983 483.959 279.089 478.982 272.601C478.802 272.349 478.405 272.205 478.117 272.493C474.114 276.926 470.255 281.504 466.577 286.19C464.918 288.28 463.151 290.371 461.708 292.641C460.41 294.696 461.023 296.642 461.925 298.733C462.177 298.481 462.43 298.228 462.682 297.976C461.925 297.507 461.167 297.075 460.41 296.606C460.158 296.462 459.797 296.534 459.653 296.787C458.751 298.445 457.345 300.283 456.84 302.121C456.407 303.743 457.309 305.87 457.669 307.456C457.922 307.239 458.21 307.059 458.463 306.843C457.417 306.374 456.588 305.762 455.83 304.896C455.578 304.608 455.145 304.716 454.965 305.005C452.152 309.186 449.952 313.763 448.437 318.593C447.139 322.774 445.877 327.532 447.716 331.713C448.077 332.362 449.014 331.821 448.726 331.209Z" fill="#919B9B"/>
<path d="M478.081 281.432C476.638 297.76 465.459 310.844 460.807 326.198C460.59 326.883 461.636 327.136 461.852 326.487C466.504 311.024 477.72 297.904 479.162 281.432C479.235 280.711 478.117 280.747 478.081 281.432Z" fill="#919B9B"/>
<path d="M464.449 290.118C465.603 296.066 466.937 301.941 468.452 307.78C468.632 308.465 469.678 308.176 469.498 307.491C467.983 301.652 466.649 295.741 465.495 289.83C465.387 289.145 464.341 289.433 464.449 290.118Z" fill="#919B9B"/>
<path d="M476.638 293.939C479.775 291.668 482.48 288.965 484.824 285.829C485.257 285.288 484.319 284.748 483.887 285.288C481.687 288.244 479.09 290.839 476.097 293.002C475.556 293.434 476.097 294.372 476.638 293.939Z" fill="#919B9B"/>
<path d="M473.285 278.512C474.258 281.612 474.835 285.396 477.215 287.739C477.72 288.244 478.478 287.451 477.973 286.982C475.773 284.784 475.196 281.071 474.294 278.224C474.114 277.575 473.068 277.863 473.285 278.512Z" fill="#919B9B"/>
<path d="M446.562 330.92C444.362 329.19 443.028 326.775 441.91 324.252C440.647 321.296 439.566 318.269 438.592 315.205C436.753 309.33 435.418 303.274 434.625 297.183C433.002 284.423 434.3 271.52 432.75 258.724C432.425 258.832 432.065 258.904 431.74 259.012C435.779 268.096 445.227 273.538 453.089 278.945C453.017 278.692 452.945 278.44 452.909 278.188C451.827 279.738 450.745 281.288 449.663 282.838C449.411 283.198 449.735 283.667 450.132 283.667C451.538 283.667 452.764 283.486 454.099 283.018C453.882 282.946 453.702 282.838 453.486 282.765C454.82 284.82 456.154 286.874 457.489 288.929C457.525 288.713 457.561 288.496 457.561 288.28C456.912 288.893 456.371 289.578 455.83 290.335C455.649 290.587 455.83 291.092 456.154 291.128C459.111 291.56 460.157 294.372 460.915 296.895C461.131 297.543 462.177 297.291 461.96 296.606C461.059 293.759 459.761 290.551 456.443 290.082C456.551 290.335 456.659 290.623 456.767 290.875C457.236 290.154 457.705 289.65 458.318 289.073C458.498 288.929 458.534 288.605 458.39 288.424C457.056 286.37 455.722 284.315 454.387 282.261C454.279 282.081 454.027 281.936 453.774 282.009C452.548 282.405 451.358 282.621 450.096 282.585C450.24 282.874 450.42 283.126 450.565 283.414C451.646 281.864 452.728 280.314 453.81 278.765C453.991 278.512 453.846 278.188 453.63 278.008C445.913 272.709 436.644 267.411 432.678 258.472C432.461 258.003 431.596 258.219 431.668 258.76C433.255 272.024 431.848 285.433 433.723 298.661C434.625 305.041 436.104 311.312 438.159 317.404C439.818 322.342 441.549 328.361 445.768 331.713C446.345 332.11 447.103 331.353 446.562 330.92Z" fill="#919B9B"/>
<path d="M431.957 259.805C434.878 267.879 437.33 276.386 441.261 284.063C443.208 287.848 445.336 291.56 447.175 295.417C449.158 299.598 450.926 303.851 452.729 308.068C452.981 308.717 453.919 308.14 453.666 307.528C451.971 303.491 450.24 299.454 448.401 295.489C446.598 291.596 444.506 287.884 442.487 284.099C438.448 276.386 435.96 267.735 432.966 259.553C432.75 258.868 431.704 259.157 431.957 259.805Z" fill="#919B9B"/>
<path d="M433.327 287.199C437.222 287.667 441.477 287.884 444.434 290.803C444.939 291.308 445.696 290.515 445.191 290.046C442.018 286.946 437.51 286.658 433.327 286.154C432.642 286.045 432.642 287.127 433.327 287.199Z" fill="#919B9B"/>
<path d="M443.749 272.601C443.1 274.944 442.667 277.359 442.487 279.81C442.343 281.9 442.09 284.351 442.812 286.37C443.028 287.019 444.074 286.73 443.857 286.081C443.172 284.171 443.425 281.792 443.569 279.774C443.749 277.431 444.182 275.124 444.795 272.853C444.975 272.204 443.93 271.916 443.749 272.601Z" fill="#919B9B"/>
<path d="M435.78 306.843C438.592 306.915 441.297 306.951 444.038 307.708C446.743 308.465 449.411 309.258 452.116 310.051C452.801 310.231 453.09 309.186 452.404 309.005C449.519 308.176 446.67 307.275 443.749 306.518C441.117 305.834 438.484 305.87 435.78 305.798C435.094 305.725 435.094 306.807 435.78 306.843Z" fill="#919B9B"/>
<path d="M475.232 329.911C477.648 329.587 480.028 329.587 482.444 329.911C482.336 329.659 482.228 329.37 482.12 329.118C481.903 329.442 479.739 329.478 479.307 329.514C478.333 329.659 477.323 329.803 476.35 330.019C476.205 330.055 475.232 330.163 475.196 330.271C475.268 330.091 476.71 330.127 476.927 330.127C477.972 330.127 479.018 330.235 480.064 330.307C480.064 329.947 480.064 329.587 480.064 329.226C479.162 329.19 478.369 329.298 477.467 329.55C476.89 329.695 476.999 330.596 477.612 330.596C479.018 330.596 480.28 330.307 481.651 329.947C482.336 329.767 482.047 328.721 481.362 328.902C480.136 329.226 478.91 329.514 477.612 329.514C477.648 329.875 477.72 330.235 477.756 330.56C478.513 330.343 479.271 330.271 480.064 330.271C480.749 330.271 480.749 329.226 480.064 329.19C478.477 329.118 476.169 328.541 474.727 329.442C474.15 329.803 473.32 330.74 474.078 331.317C474.402 331.569 474.763 331.425 475.159 331.389C476.241 331.172 477.287 330.92 478.369 330.74C479.631 330.524 482.156 330.848 483.021 329.659C483.201 329.406 483.021 328.902 482.697 328.866C480.172 328.505 477.72 328.505 475.196 328.83C474.546 328.902 474.546 329.983 475.232 329.911Z" fill="#919B9B"/>
<path d="M440.648 330.596C441.152 330.452 441.657 330.343 442.162 330.307C442.415 330.307 442.631 330.271 442.883 330.307C442.992 330.307 443.496 330.271 443.533 330.307C443.496 330.127 443.424 329.947 443.388 329.767C443.388 329.803 443.352 329.839 443.352 329.839C443.569 329.731 443.785 329.586 444.001 329.478C443.965 329.478 443.929 329.478 443.929 329.478C444.037 329.586 444.182 329.731 444.29 329.839C444.29 329.803 444.29 329.767 444.254 329.767C444.073 329.082 443.064 329.37 443.208 330.055C443.208 330.091 443.208 330.127 443.244 330.127C443.28 330.307 443.46 330.452 443.605 330.488C443.641 330.488 443.677 330.488 443.677 330.488C443.965 330.56 444.218 330.415 444.326 330.127C444.326 330.091 444.362 330.055 444.362 330.055C444.434 329.875 444.362 329.659 444.218 329.514C443.821 329.118 442.956 329.19 442.451 329.19C441.729 329.19 440.972 329.334 440.287 329.514C439.71 329.731 439.998 330.776 440.648 330.596Z" fill="#919B9B"/>
<path d="M441.477 337.841C454.64 340.111 468.307 341.193 481.29 337.3C481.939 337.084 481.687 336.074 481.001 336.255C468.235 340.075 454.748 339.03 441.765 336.795C441.08 336.687 440.792 337.733 441.477 337.841Z" fill="#919B9B"/>
<path d="M486.808 352.655C509.924 352.655 533.076 352.655 556.192 352.655C556.877 352.655 556.877 351.573 556.192 351.573C533.076 351.573 509.924 351.573 486.808 351.573C486.087 351.573 486.087 352.655 486.808 352.655Z" fill="#919B9B"/>
<path d="M469.318 375.831C491.099 375.831 512.917 375.831 534.699 375.831C535.384 375.831 535.384 374.75 534.699 374.75C512.917 374.75 491.099 374.75 469.318 374.75C468.632 374.75 468.632 375.831 469.318 375.831Z" fill="#919B9B"/>
<path d="M479.235 375.723C476.638 377.886 474.042 380.012 471.481 382.175C470.94 382.607 471.698 383.364 472.239 382.932C474.835 380.769 477.432 378.642 479.992 376.48C480.533 376.047 479.74 375.254 479.235 375.723Z" fill="#919B9B"/>
<path d="M471.806 383.328C472.491 383.328 472.491 382.247 471.806 382.247C471.12 382.247 471.12 383.328 471.806 383.328Z" fill="#919B9B"/>
<path d="M482.805 382.247C460.843 382.247 438.881 382.247 416.919 382.247C416.233 382.247 416.233 383.328 416.919 383.328C438.881 383.328 460.843 383.328 482.805 383.328C483.49 383.328 483.49 382.247 482.805 382.247Z" fill="#919B9B"/>
<path d="M416.811 393.421C420.705 390.177 424.708 387.077 428.819 384.085C429.36 383.689 428.855 382.752 428.278 383.148C424.095 386.176 420.02 389.348 416.053 392.628C415.512 393.096 416.27 393.853 416.811 393.421Z" fill="#919B9B"/>
<path d="M88.4974 373.74C113.958 373.74 139.418 373.74 164.878 373.74C172.09 373.74 179.303 373.74 186.515 373.74C187.2 373.74 187.2 372.659 186.515 372.659C161.055 372.659 135.595 372.659 110.135 372.659C102.922 372.659 95.7099 372.659 88.4974 372.659C87.8122 372.659 87.8122 373.74 88.4974 373.74Z" fill="#919B9B"/>
<path d="M101.805 383.148C105.231 380.229 108.693 377.309 112.119 374.389C112.659 373.921 111.866 373.164 111.361 373.632C107.935 376.552 104.473 379.472 101.047 382.391C100.506 382.824 101.3 383.617 101.805 383.148Z" fill="#919B9B"/>
<path d="M89.3989 384.193C113.056 384.193 136.713 384.193 160.37 384.193C161.055 384.193 161.055 383.112 160.37 383.112C136.713 383.112 113.056 383.112 89.3989 383.112C88.7137 383.112 88.7137 384.193 89.3989 384.193Z" fill="#919B9B"/>
<path d="M152.112 383.977C149.407 387.005 146.63 389.96 143.817 392.916C143.349 393.421 144.106 394.178 144.575 393.673C147.388 390.717 150.128 387.762 152.869 384.734C153.374 384.229 152.581 383.472 152.112 383.977Z" fill="#919B9B"/>
<path d="M133.648 394.646C154.456 394.646 175.228 394.646 196.036 394.646C196.721 394.646 196.721 393.565 196.036 393.565C175.228 393.565 154.456 393.565 133.648 393.565C132.963 393.565 132.963 394.646 133.648 394.646Z" fill="#919B9B"/>
<path d="M118.898 355.61C127.698 355.61 136.497 355.61 145.332 355.61C146.017 355.61 146.017 354.529 145.332 354.529C136.533 354.529 127.734 354.529 118.898 354.529C118.213 354.529 118.213 355.61 118.898 355.61Z" fill="#919B9B"/>
<path d="M152.003 359.143C154.708 359.143 157.449 359.143 160.154 359.143C160.839 359.143 160.839 358.061 160.154 358.061C157.449 358.061 154.708 358.061 152.003 358.061C151.282 358.061 151.282 359.143 152.003 359.143Z" fill="#919B9B"/>
<path d="M132.422 166.415C132.422 172.29 132.422 178.202 132.422 184.077C132.422 184.762 133.503 184.762 133.503 184.077C133.503 178.202 133.503 172.29 133.503 166.415C133.503 165.73 132.422 165.73 132.422 166.415Z" fill="#919B9B"/>
<path d="M114.282 184.942C128.779 184.942 143.277 184.942 157.774 184.942C158.459 184.942 158.459 183.86 157.774 183.86C143.277 183.86 128.779 183.86 114.282 183.86C113.597 183.86 113.597 184.942 114.282 184.942Z" fill="#919B9B"/>
<path d="M144.647 185.446C144.647 189.988 144.647 194.494 144.647 199.035C144.647 199.72 145.729 199.72 145.729 199.035C145.729 194.494 145.729 189.988 145.729 185.446C145.729 184.726 144.647 184.726 144.647 185.446Z" fill="#919B9B"/>
<path d="M132.638 200.909C144.178 200.909 155.754 200.909 167.294 200.909C167.979 200.909 167.979 199.828 167.294 199.828C155.754 199.828 144.178 199.828 132.638 199.828C131.917 199.828 131.917 200.909 132.638 200.909Z" fill="#919B9B"/>
<path d="M423.662 153.764C423.662 155.205 423.662 156.611 423.662 158.053C423.662 158.738 424.744 158.738 424.744 158.053C424.744 156.611 424.744 155.205 424.744 153.764C424.744 153.079 423.662 153.079 423.662 153.764Z" fill="#919B9B"/>
<path d="M424.528 154.629C449.339 154.629 474.15 154.629 498.961 154.629C499.646 154.629 499.646 153.548 498.961 153.548C474.15 153.548 449.339 153.548 424.528 153.548C423.842 153.548 423.842 154.629 424.528 154.629Z" fill="#919B9B"/>
<path d="M425.177 158.594C449.771 158.594 474.366 158.594 498.925 158.594C499.61 158.594 499.61 157.512 498.925 157.512C474.33 157.512 449.735 157.512 425.177 157.512C424.492 157.512 424.492 158.594 425.177 158.594Z" fill="#919B9B"/>
<path d="M498.78 153.764C498.636 155.241 498.708 156.719 498.961 158.197C499.069 158.882 500.115 158.594 500.007 157.909C499.754 156.539 499.718 155.133 499.862 153.764C499.934 153.079 498.853 153.079 498.78 153.764Z" fill="#919B9B"/>
<path d="M429.612 153.8C429.612 143.744 429.612 133.687 429.612 123.631C429.612 122.946 428.531 122.946 428.531 123.631C428.531 133.687 428.531 143.744 428.531 153.8C428.531 154.521 429.612 154.521 429.612 153.8Z" fill="#919B9B"/>
<path d="M429.613 123.811C432.678 122.586 435.924 122.766 438.772 124.46C439.386 124.82 439.926 123.883 439.313 123.523C436.248 121.721 432.606 121.432 429.324 122.766C428.675 123.018 428.964 124.063 429.613 123.811Z" fill="#919B9B"/>
<path d="M438.592 124.208C438.592 133.867 438.592 143.563 438.592 153.223C438.592 153.908 439.674 153.908 439.674 153.223C439.674 143.563 439.674 133.867 439.674 124.208C439.674 123.523 438.592 123.523 438.592 124.208Z" fill="#919B9B"/>
<path d="M439.818 132.282C442.018 131.38 444.326 131.525 446.382 132.786C446.995 133.147 447.536 132.209 446.923 131.849C444.651 130.479 441.982 130.227 439.53 131.236C438.881 131.489 439.169 132.534 439.818 132.282Z" fill="#919B9B"/>
<path d="M446.166 132.75C446.166 139.526 446.166 146.267 446.166 153.043C446.166 153.728 447.247 153.728 447.247 153.043C447.247 146.267 447.247 139.526 447.247 132.75C447.247 132.065 446.166 132.065 446.166 132.75Z" fill="#919B9B"/>
<path d="M429.757 132.101C432.822 131.416 435.851 131.633 438.808 132.678C439.458 132.894 439.746 131.849 439.097 131.633C435.959 130.515 432.714 130.371 429.468 131.056C428.819 131.2 429.108 132.245 429.757 132.101Z" fill="#919B9B"/>
<path d="M439.061 144.609C441.369 143.996 443.677 143.924 446.021 144.428C446.706 144.573 446.995 143.527 446.31 143.383C443.785 142.843 441.297 142.879 438.772 143.563C438.123 143.744 438.376 144.789 439.061 144.609Z" fill="#919B9B"/>
<path d="M459.797 153.439C459.797 151.421 459.797 149.402 459.797 147.384C459.797 146.699 458.715 146.699 458.715 147.384C458.715 149.402 458.715 151.421 458.715 153.439C458.715 154.124 459.797 154.124 459.797 153.439Z" fill="#919B9B"/>
<path d="M459.256 147.708C470.976 147.708 482.66 147.708 494.381 147.708C495.066 147.708 495.066 146.627 494.381 146.627C482.66 146.627 470.976 146.627 459.256 146.627C458.534 146.627 458.534 147.708 459.256 147.708Z" fill="#919B9B"/>
<path d="M494.742 148.285C495.427 148.285 495.427 147.204 494.742 147.204C494.02 147.204 494.02 148.285 494.742 148.285Z" fill="#919B9B"/>
<path d="M494.201 147.744C494.201 149.583 494.201 151.421 494.201 153.259C494.201 153.944 495.283 153.944 495.283 153.259C495.283 151.421 495.283 149.583 495.283 147.744C495.283 147.06 494.201 147.06 494.201 147.744Z" fill="#919B9B"/>
<path d="M466.613 146.988C466.613 145.077 466.613 143.203 466.613 141.293C466.613 140.608 465.531 140.608 465.531 141.293C465.531 143.203 465.531 145.077 465.531 146.988C465.531 147.672 466.613 147.672 466.613 146.988Z" fill="#919B9B"/>
<path d="M466.072 141.653C477.576 141.653 489.08 141.653 500.62 141.653C501.305 141.653 501.305 140.572 500.62 140.572C489.116 140.572 477.612 140.572 466.072 140.572C465.387 140.572 465.387 141.653 466.072 141.653Z" fill="#919B9B"/>
<path d="M500.259 141.112C500.259 142.698 500.259 144.284 500.259 145.87C500.259 146.555 501.341 146.555 501.341 145.87C501.341 144.284 501.341 142.698 501.341 141.112C501.341 140.391 500.259 140.391 500.259 141.112Z" fill="#919B9B"/>
<path d="M493.984 147.889C496.076 147.889 498.168 147.889 500.259 147.889C500.944 147.889 500.944 146.807 500.259 146.807C498.168 146.807 496.076 146.807 493.984 146.807C493.263 146.807 493.263 147.889 493.984 147.889Z" fill="#919B9B"/>
<path d="M500.187 145.906C500.115 146.303 500.115 146.663 500.223 147.024C500.295 147.312 500.62 147.492 500.872 147.384C501.161 147.312 501.341 146.988 501.233 146.735C501.197 146.555 501.161 146.339 501.197 146.195C501.233 145.906 501.125 145.582 500.836 145.546C500.584 145.474 500.223 145.618 500.187 145.906Z" fill="#919B9B"/>
<path d="M474.294 141.365C474.763 143.203 474.871 145.077 474.618 146.987C474.546 147.672 475.628 147.672 475.7 146.987C475.953 145.005 475.809 143.023 475.34 141.076C475.159 140.427 474.114 140.716 474.294 141.365Z" fill="#919B9B"/>
<path d="M482.444 147.636C482.697 149.439 482.553 151.205 482.12 152.935C481.939 153.62 482.985 153.908 483.166 153.223C483.671 151.277 483.779 149.33 483.49 147.348C483.418 146.663 482.372 146.952 482.444 147.636Z" fill="#919B9B"/>
<path d="M475.376 191.502C475.376 194.349 475.376 197.161 475.376 200.008C475.376 200.693 476.458 200.693 476.458 200.008C476.458 197.161 476.458 194.349 476.458 191.502C476.458 190.781 475.376 190.781 475.376 191.502Z" fill="#919B9B"/>
<path d="M467.009 200.152C474.222 200.152 481.435 200.152 488.647 200.152C489.332 200.152 489.332 199.071 488.647 199.071C481.435 199.071 474.222 199.071 467.009 199.071C466.324 199.071 466.324 200.152 467.009 200.152Z" fill="#919B9B"/>
<path d="M454.712 78.9003C454.712 85.3882 454.712 91.9122 454.712 98.4001C454.712 99.0849 455.794 99.0849 455.794 98.4001C455.794 91.9122 455.794 85.3882 455.794 78.9003C455.794 78.2154 454.712 78.2154 454.712 78.9003Z" fill="#919B9B"/>
<path d="M456.082 78.8643C464.305 78.8643 472.491 78.8643 480.713 78.8643C481.398 78.8643 481.398 77.783 480.713 77.783C472.491 77.783 464.305 77.783 456.082 77.783C455.397 77.783 455.397 78.8643 456.082 78.8643Z" fill="#919B9B"/>
<path d="M480.749 78.72C480.749 84.9917 480.749 91.2634 480.749 97.499C480.749 98.1838 481.831 98.1838 481.831 97.499C481.831 91.2273 481.831 84.9557 481.831 78.72C481.831 78.0352 480.749 78.0352 480.749 78.72Z" fill="#919B9B"/>
<path d="M455.109 99.0129C463.836 99.0129 472.563 99.0129 481.29 99.0129C481.976 99.0129 481.976 97.9316 481.29 97.9316C472.563 97.9316 463.836 97.9316 455.109 97.9316C454.424 97.9316 454.424 99.0129 455.109 99.0129Z" fill="#919B9B"/>
<path d="M457.128 81.135C457.128 86.073 457.128 90.975 457.128 95.913C457.128 96.5979 458.21 96.5979 458.21 95.913C458.21 90.975 458.21 86.073 458.21 81.135C458.21 80.4501 457.128 80.4501 457.128 81.135Z" fill="#919B9B"/>
<path d="M457.922 81.5677C464.665 81.5677 471.445 81.5677 478.189 81.5677C478.874 81.5677 478.874 80.4863 478.189 80.4863C471.445 80.4863 464.665 80.4863 457.922 80.4863C457.236 80.4863 457.236 81.5677 457.922 81.5677Z" fill="#919B9B"/>
<path d="M477.792 81.135C477.792 85.7126 477.792 90.2541 477.792 94.8317C477.792 95.5165 478.874 95.5165 478.874 94.8317C478.874 90.2541 478.874 85.7126 478.874 81.135C478.874 80.4501 477.792 80.4501 477.792 81.135Z" fill="#919B9B"/>
<path d="M457.922 96.4536C464.629 96.4536 471.337 96.4536 478.081 96.4536C478.766 96.4536 478.766 95.3723 478.081 95.3723C471.373 95.3723 464.665 95.3723 457.922 95.3723C457.236 95.3723 457.236 96.4536 457.922 96.4536Z" fill="#919B9B"/>
<path d="M470.688 89.9658C467.839 87.8032 472.094 83.2976 474.078 86.001C475.917 88.452 472.924 91.4076 470.363 90.0379C469.75 89.7135 469.209 90.6506 469.822 90.975C471.481 91.8761 473.681 91.6238 474.871 90.0739C476.097 88.524 475.953 86.073 474.402 84.7755C472.78 83.4418 470.472 84.3429 469.354 85.8568C468.164 87.5148 468.524 89.6775 470.147 90.903C470.724 91.2994 471.229 90.3623 470.688 89.9658Z" fill="#919B9B"/>
<path d="M467.262 95.3003C467.117 92.4528 470.615 91.3715 472.815 91.3715C475.52 91.3715 476.385 93.7864 477.503 95.8409C477.828 96.4537 478.765 95.913 478.441 95.3003C477.684 93.9306 476.962 92.1284 475.7 91.1192C474.546 90.2181 473.104 90.2541 471.733 90.3983C469.209 90.6866 465.999 92.2365 466.18 95.3003C466.216 95.9851 467.298 95.9851 467.262 95.3003Z" fill="#919B9B"/>
<path d="M458.391 92.7052C459.184 91.2274 462.105 91.804 463.187 92.3807C464.305 92.9935 464.954 94.0027 465.242 95.2282C465.387 95.9131 466.432 95.6247 466.288 94.9399C465.855 93.0656 464.557 91.5878 462.682 90.975C461.095 90.4704 458.391 90.4344 457.489 92.1284C457.128 92.7772 458.066 93.3179 458.391 92.7052Z" fill="#919B9B"/>
<path d="M460.482 90.0381C459.292 90.002 459.581 88.2359 460.086 87.6231C460.735 86.8301 462.033 86.722 462.79 87.4789C463.403 88.0556 463.584 89.137 463.079 89.8218C462.718 90.3264 462.177 90.4345 461.6 90.4345C461.384 90.4345 460.482 90.4706 460.338 90.2904C459.941 89.7137 459.004 90.2543 459.4 90.831C459.833 91.4798 460.735 91.5159 461.456 91.5159C462.321 91.5519 463.151 91.3356 463.764 90.6869C464.918 89.4253 464.521 87.2987 463.151 86.3616C461.672 85.3884 459.617 85.929 458.86 87.515C458.21 88.9207 458.679 91.0473 460.482 91.0833C461.204 91.1554 461.204 90.0741 460.482 90.0381Z" fill="#919B9B"/>
<path d="M239.779 174.705C241.474 176.075 243.566 175.498 245.153 174.165C247.388 172.326 248.506 169.191 248.939 166.415C250.057 159.351 247.208 152.646 246.09 145.798C244.071 133.074 249.624 119.45 259.938 111.808C264.951 108.06 273.209 104.059 271.262 96.3816C271.082 95.6967 270.036 95.9851 270.216 96.6699C272.055 103.987 263.544 107.699 258.892 111.232C254.709 114.44 251.319 118.585 248.903 123.234C246.523 127.74 245.08 132.75 244.684 137.832C244.215 143.996 245.838 149.727 247.172 155.674C247.965 159.278 248.47 163.063 247.785 166.74C247.461 168.434 246.884 170.092 245.982 171.569C244.972 173.155 242.556 175.606 240.537 173.984C240.032 173.516 239.238 174.273 239.779 174.705Z" fill="#919B9B"/>
<path d="M270.865 95.9492C266.79 96.1294 263.22 92.9575 263.437 88.7764C263.653 84.4151 268.81 80.3782 273.173 81.5316C277.068 82.5769 280.061 86.8661 279.088 90.867C278.114 94.8679 273.606 95.7329 270.144 96.3096C269.459 96.4178 269.747 97.4631 270.433 97.3549C274.904 96.634 280.097 95.0481 280.386 89.6415C280.602 85.2441 276.671 80.4863 272.164 80.3061C267.403 80.0898 262.607 83.9826 262.355 88.8125C262.138 93.5703 266.213 97.2468 270.865 97.0666C271.551 96.9945 271.551 95.9132 270.865 95.9492Z" fill="#919B9B"/>
<path d="M265.528 93.1376C267.259 88.7762 276.491 88.0554 277.573 93.2457C277.717 93.9305 278.763 93.6422 278.619 92.9573C277.284 86.6136 266.574 87.5507 264.482 92.8492C264.23 93.498 265.276 93.7503 265.528 93.1376Z" fill="#919B9B"/>
<path d="M270.937 88.2717C270.18 87.731 269.891 86.6857 270.396 85.8928C270.973 84.9196 272.199 84.8114 273.137 85.3161C273.858 85.7125 274.002 86.6137 273.57 87.2985C273.029 88.1275 271.875 88.2356 270.973 88.0194C270.288 87.8752 270 88.9205 270.685 89.0646C272.127 89.389 273.858 89.0646 274.579 87.6589C275.229 86.3974 274.76 84.8835 273.462 84.2708C272.019 83.622 270.288 83.9103 269.459 85.3161C268.629 86.6497 269.17 88.3077 270.396 89.1728C270.973 89.6413 271.514 88.7042 270.937 88.2717Z" fill="#919B9B"/>
<path d="M286.228 77.1702C290.014 67.1499 300.905 62.0317 311.039 61.3469C317.746 60.8783 324.454 61.9236 331.017 63.1851C337.22 64.4106 343.675 66.357 350.022 66.1407C355.251 65.9605 360.625 63.7978 363.077 58.9319C363.402 58.3192 362.464 57.7785 362.139 58.3912C359.291 64.0141 352.727 65.4559 346.921 64.9873C340.141 64.4466 333.47 62.4282 326.798 61.3108C315.979 59.5086 304.439 59.2563 294.811 65.3477C290.447 68.1231 286.985 72.0159 285.146 76.8818C284.93 77.5306 285.975 77.819 286.228 77.1702Z" fill="#919B9B"/>
<path d="M367.44 58.3191C376.961 58.3191 386.518 58.3191 396.038 58.3191C396.723 58.3191 396.723 57.2378 396.038 57.2378C386.518 57.2378 376.961 57.2378 367.44 57.2378C366.719 57.2378 366.719 58.3191 367.44 58.3191Z" fill="#919B9B"/>
<path d="M367.044 57.1656C365.349 55.5076 367.188 52.6961 368.523 51.4346C370.145 49.8487 372.381 49.2359 374.545 50.101C374.725 50.1731 375.086 50.0649 375.158 49.8487C376.456 46.821 379.522 44.6223 382.875 44.7665C386.374 44.9106 389.331 47.5419 390.196 50.8579C390.268 51.1823 390.701 51.3625 390.99 51.1823C392.576 50.2091 394.199 51.3625 394.848 52.8403C395.425 54.21 395.281 55.7599 395.137 57.2377C395.065 57.9225 396.146 57.9225 396.219 57.2377C396.435 55.0751 396.579 52.5159 394.848 50.8579C393.622 49.7045 391.927 49.3441 390.485 50.2452C390.737 50.3533 391.026 50.4614 391.278 50.5696C390.304 46.9651 387.203 44.0816 383.416 43.7212C379.522 43.3247 375.771 45.7397 374.257 49.308C374.473 49.2359 374.653 49.1278 374.87 49.0557C371.985 47.9023 368.955 49.1278 367.08 51.5067C365.674 53.2729 364.448 56.1203 366.359 57.9586C366.792 58.4272 367.549 57.6702 367.044 57.1656Z" fill="#919B9B"/>
<path d="M387.564 62.4642C391.999 61.9596 394.596 66.6093 395.281 70.3578C396.002 74.2145 395.317 78.0713 394.92 81.928C394.307 87.7311 394.704 94.7236 400.222 98.1118C400.799 98.4722 401.376 97.535 400.762 97.1746C393.225 92.561 396.363 82.2884 396.651 75.2238C396.868 69.8532 394.74 60.5899 387.564 61.3829C386.878 61.455 386.878 62.5363 387.564 62.4642Z" fill="#919B9B"/>
<path d="M406.208 92.0203C402.962 100.202 399.753 108.384 396.507 116.53C396.255 117.179 397.301 117.467 397.553 116.819C400.799 108.637 404.008 100.455 407.254 92.3087C407.506 91.6599 406.46 91.4076 406.208 92.0203Z" fill="#919B9B"/>
<path d="M406.713 92.7051C412.339 92.4168 417.928 92.5609 423.518 93.2097C423.338 92.9935 423.157 92.7412 423.013 92.5249C420.345 101.067 418.181 109.718 416.45 118.477C416.306 119.161 417.351 119.45 417.496 118.765C419.227 110.006 421.426 101.356 424.059 92.8132C424.167 92.4528 423.879 92.1645 423.554 92.1284C417.964 91.4796 412.375 91.3354 406.749 91.6238C406.028 91.6598 406.028 92.7412 406.713 92.7051Z" fill="#919B9B"/>
<path d="M396.76 117.576C400.077 117.72 403.359 117.9 406.677 118.116C409.886 118.296 413.312 118.224 416.341 119.45C416.991 119.702 417.279 118.657 416.63 118.405C413.745 117.215 410.463 117.287 407.398 117.107C403.864 116.891 400.33 116.71 396.76 116.53C396.074 116.458 396.074 117.539 396.76 117.576Z" fill="#919B9B"/>
<path d="M407.217 96.3095C410.679 96.3816 414.142 96.6339 417.567 97.1025C418.253 97.2106 418.541 96.1653 417.856 96.0572C414.322 95.5526 410.788 95.2642 407.217 95.1921C406.496 95.1921 406.496 96.2735 407.217 96.3095Z" fill="#919B9B"/>
<path d="M406.172 98.7606C408.119 98.6885 410.067 98.7246 412.014 98.9048C412.699 98.9769 412.699 97.8956 412.014 97.8235C410.067 97.6432 408.119 97.5712 406.172 97.6793C405.487 97.7153 405.487 98.7967 406.172 98.7606Z" fill="#919B9B"/>
<path d="M403.792 103.626C407.939 103.374 411.87 103.014 415.945 104.023C416.63 104.203 416.918 103.158 416.233 102.978C412.05 101.968 408.047 102.293 403.792 102.545C403.07 102.581 403.07 103.662 403.792 103.626Z" fill="#919B9B"/>
<path d="M403.972 106.798C406.352 106.618 408.732 106.618 411.112 106.834C411.798 106.906 411.798 105.825 411.112 105.753C408.732 105.537 406.352 105.537 403.972 105.717C403.287 105.789 403.251 106.87 403.972 106.798Z" fill="#919B9B"/>
<path d="M402.097 110.979C405.342 110.763 408.516 110.871 411.725 111.304C412.411 111.412 412.411 110.331 411.725 110.223C408.516 109.79 405.306 109.682 402.097 109.898C401.411 109.934 401.411 111.015 402.097 110.979Z" fill="#919B9B"/>
<path d="M222.65 62.6084C224.092 64.5548 226.184 65.3478 228.311 66.321C230.836 67.4744 233.144 69.0243 235.019 71.0788C239.274 75.6564 240.681 81.8199 240.789 87.9113C241.042 99.3373 237.183 111.304 242.376 122.117C242.664 122.73 243.602 122.189 243.313 121.576C237.868 110.187 242.7 97.427 241.763 85.4603C241.366 80.27 239.888 75.1878 236.534 71.1509C234.947 69.2405 233 67.5825 230.836 66.357C228.42 64.9873 225.282 64.3746 223.587 62.0678C223.191 61.5271 222.253 62.0678 222.65 62.6084Z" fill="#919B9B"/>
<path d="M210.316 47.3617C209.378 46.1722 209.451 45.3432 210.532 44.8747C211.001 44.6224 211.47 44.4421 212.011 44.334C212.696 44.1898 213.453 44.1538 214.175 44.1898C216.338 44.298 218.538 44.8747 218.43 47.5059C218.322 50.6057 217.745 53.6694 216.988 56.6611C216.194 59.7248 215.221 62.7165 214.175 65.7081C213.958 66.3569 213.778 67.1138 213.453 67.7266C212.804 68.844 211.795 68.8079 210.713 68.8079C209.378 68.8079 207.683 68.9881 206.385 68.6277C204.943 68.2312 204.618 66.7894 206.025 65.8523C206.674 65.4198 207.575 65.3477 208.333 65.3477C209.306 65.3477 210.172 65.5639 211.001 64.9152C212.588 63.6897 212.84 60.3736 213.201 58.6074C213.742 56.0483 214.644 52.9125 214.463 50.3173C214.319 48.3349 212.372 48.2628 210.965 47.4338C210.352 47.0734 209.811 48.0105 210.424 48.3709C211.542 49.0197 213.165 49.0918 213.381 50.5696C213.634 52.2997 212.913 54.6426 212.588 56.3727C212.263 58.0307 211.903 59.6888 211.47 61.3107C211.145 62.5362 211.001 64.014 209.378 64.3384C208.729 64.4826 207.936 64.2664 207.251 64.3745C205.52 64.6268 203.825 65.8523 204.077 67.7987C204.402 70.2497 207.323 69.8171 209.126 69.8892C211.362 69.9613 213.598 70.2857 214.607 67.9068C215.87 64.9512 216.771 61.7072 217.637 58.6435C218.538 55.4716 219.223 52.1916 219.476 48.9116C219.692 46.3525 219.8 44.298 216.952 43.6131C214.463 43.0004 211.037 42.712 209.09 44.7305C207.792 46.0641 208.116 48.6953 210.352 48.5151C211.001 48.3709 211.001 47.2896 210.316 47.3617Z" fill="#919B9B"/>
<path d="M205.953 51.2185C205.917 51.1825 205.881 51.1464 205.845 51.1104C205.7 50.9662 205.484 50.9301 205.304 50.9662C204.258 51.3266 203.861 53.0207 203.573 53.9578C203.068 55.688 202.96 57.4541 203.212 59.2563C203.284 59.9411 204.366 59.9411 204.294 59.2563C204.15 57.9948 204.114 56.7693 204.33 55.5077C204.438 54.8589 205.556 52.3359 205.159 51.9754C205.664 52.48 206.422 51.7231 205.953 51.2185Z" fill="#919B9B"/>
<path d="M202.31 47.2537C198.993 51.4708 196.865 56.5531 198.271 61.9597C198.452 62.6445 199.498 62.3561 199.317 61.6713C198.019 56.6972 200.038 51.9034 203.068 48.0106C203.5 47.47 202.743 46.713 202.31 47.2537Z" fill="#919B9B"/>
<path d="M197.767 42.3876C192.249 49.6325 189.653 58.7877 190.59 67.8708C190.662 68.5556 191.744 68.5556 191.672 67.8708C190.771 58.9679 193.259 50.065 198.704 42.9283C199.101 42.3876 198.163 41.847 197.767 42.3876Z" fill="#919B9B"/>
<path d="M190.085 79.2246C187.309 80.5583 184.712 82.3965 182.656 84.7033C180.565 87.0822 179.916 89.6413 179.591 92.7411C178.87 99.8418 176.237 107.627 169.097 110.619C168.448 110.871 168.736 111.917 169.385 111.664C175.083 109.285 178.401 103.879 179.808 98.0396C180.637 94.5433 180.24 90.3983 182.079 87.2624C183.955 84.0545 187.345 81.7117 190.626 80.1257C191.275 79.8734 190.734 78.9363 190.085 79.2246Z" fill="#919B9B"/>
<path d="M153.842 129.758C151.462 129.83 148.758 128.821 147.892 126.37C146.882 123.487 149.046 120.675 151.354 119.197C155.826 116.314 161.848 115.197 167.041 115.124C169.674 115.088 172.667 115.124 174.975 116.53C177.932 118.332 178.437 121.721 176.129 124.28C172.631 128.172 166.609 128.569 161.776 128.929C161.091 128.965 161.091 130.047 161.776 130.011C166.609 129.65 172.018 129.218 175.913 125.974C179.483 123.018 179.735 118.116 175.552 115.557C171.225 112.926 164.625 113.791 159.937 114.8C155.429 115.773 149.263 117.539 147.243 122.189C145.151 126.947 149.154 130.912 153.915 130.768C154.564 130.804 154.564 129.722 153.842 129.758Z" fill="#919B9B"/>
<path d="M153.662 130.191C152.761 131.633 151.895 133.074 150.994 134.48C150.705 134.949 151.282 135.453 151.751 135.237C153.951 134.048 156.331 133.291 158.567 132.245C159.793 131.705 160.983 131.056 162.137 130.335C162.534 130.083 163.002 129.939 163.111 129.434C163.183 129.182 163.038 128.821 162.75 128.785C162.714 128.785 162.678 128.785 162.642 128.749C162.389 128.713 162.029 128.821 161.993 129.11C161.993 129.146 161.993 129.146 161.993 129.182C161.848 129.866 162.894 130.155 163.038 129.47C163.038 129.434 163.038 129.434 163.038 129.398C162.822 129.506 162.606 129.65 162.389 129.758C162.425 129.758 162.461 129.758 162.497 129.794C162.389 129.578 162.245 129.362 162.137 129.146C162.029 129.506 160.009 130.335 159.576 130.587C158.495 131.164 157.377 131.633 156.223 132.101C154.528 132.786 152.869 133.435 151.282 134.3C151.534 134.552 151.787 134.804 152.039 135.057C152.941 133.615 153.806 132.173 154.708 130.768C154.96 130.155 154.023 129.614 153.662 130.191Z" fill="#919B9B"/>
<path d="M154.852 123.955C154.816 123.883 154.816 123.739 154.924 123.739C155.213 123.739 154.888 124.1 154.852 124.136C154.672 124.244 154.059 124.388 154.095 124.028C154.131 123.595 154.96 123.126 155.105 123.775C155.141 123.955 154.996 124.172 154.816 124.208C154.708 124.244 154.636 124.244 154.564 124.172C154.528 124.136 154.455 124.1 154.528 124.1C155.213 124.136 155.213 123.054 154.528 123.018C153.806 122.946 153.265 123.703 153.446 124.388C153.626 125.073 154.419 125.433 155.068 125.253C155.718 125.073 156.222 124.496 156.222 123.811C156.222 123.126 155.682 122.55 155.068 122.406C153.734 122.081 152.328 124.028 153.482 125.001C154.419 125.794 156.295 125.073 156.186 123.739C156.114 123.018 155.321 122.442 154.6 122.694C153.878 122.946 153.59 123.847 153.951 124.496C154.239 125.109 155.177 124.568 154.852 123.955Z" fill="#919B9B"/>
<path d="M162.822 122.982C162.786 122.766 162.678 122.477 162.894 122.297C163.002 122.189 163.183 122.189 163.327 122.189C163.688 122.261 163.616 122.658 163.363 122.838C163.219 122.946 163.075 122.946 162.966 122.802C162.858 122.658 162.894 122.622 163.002 122.55C163.075 122.514 162.858 122.55 163.039 122.514C163.471 122.441 162.75 122.946 162.858 122.586C162.642 123.27 163.688 123.523 163.904 122.874C164.084 122.225 163.471 121.576 162.822 121.684C162.065 121.829 161.885 122.73 162.353 123.27C162.786 123.775 163.579 123.667 163.904 123.09C164.229 122.514 164.012 121.757 163.363 121.54C162.714 121.324 161.993 121.721 161.848 122.369C161.668 123.09 162.173 123.811 162.894 123.991C164.193 124.28 165.274 122.514 164.337 121.54C163.868 121.072 163.111 121.036 162.534 121.288C161.74 121.684 161.704 122.514 161.848 123.27C161.885 123.955 162.93 123.667 162.822 122.982Z" fill="#919B9B"/>
<path d="M170.828 120.567C170.972 120.567 171.116 120.603 171.297 120.603V120.567C171.333 120.531 171.333 120.459 171.369 120.423C171.405 120.351 171.513 120.279 171.585 120.243C171.766 120.171 171.946 120.171 172.054 120.351C172.198 120.639 171.946 121.18 171.585 120.964C171.369 120.819 171.333 120.459 171.657 120.531C171.729 120.531 171.766 120.567 171.802 120.603C171.802 120.603 171.802 120.675 171.802 120.603C171.802 120.531 171.802 120.639 171.766 120.639C171.657 120.711 171.621 120.783 171.513 120.711C171.261 120.531 170.9 120.675 170.756 120.891C170.612 121.18 170.72 121.468 170.936 121.648C171.982 122.405 173.388 120.891 172.559 119.882C171.802 118.981 170.179 119.558 170.251 120.747C170.287 121.36 170.756 121.901 171.333 122.045C171.91 122.189 172.523 121.901 172.847 121.396C173.569 120.279 172.559 118.729 171.225 119.161C170.612 119.378 170.071 119.99 170.143 120.675C170.215 121.432 171.297 121.829 171.693 121.072C172.054 120.495 171.152 119.954 170.828 120.567Z" fill="#919B9B"/>
<path d="M192.61 89.1367C197.045 86.6858 200.904 83.4418 204.114 79.513C204.546 78.9723 203.789 78.2154 203.356 78.7561C200.219 82.6128 196.432 85.7847 192.069 88.1996C191.456 88.524 191.997 89.4611 192.61 89.1367Z" fill="#919B9B"/>
<path d="M246.559 90.0738C245.766 94.6154 245.441 99.193 245.657 103.807C245.693 104.491 246.775 104.491 246.739 103.807C246.523 99.3011 246.811 94.7956 247.605 90.3622C247.713 89.6774 246.667 89.389 246.559 90.0738Z" fill="#919B9B"/>
<path d="M241.041 195.431C241.041 189.916 243.638 184.69 248.074 181.373C248.615 180.977 248.074 180.04 247.533 180.436C242.772 183.969 239.996 189.483 239.996 195.431C239.96 196.115 241.041 196.115 241.041 195.431Z" fill="#919B9B"/>
<path d="M301.447 340.976C302.024 346.167 302.925 351.862 304.368 358.025C306.315 366.351 308.803 373.632 311.292 379.76C310.607 380.372 308.551 381.994 305.522 382.211C303.61 382.355 302.096 381.886 301.23 381.562C299.932 377.056 298.67 372.371 297.516 367.505C295.136 357.484 293.405 347.933 292.142 339.03C295.28 339.679 298.381 340.328 301.447 340.976Z" fill="#191919"/>
<path d="M382.407 337.588C381.938 342.742 381.145 348.473 379.811 354.637C377.935 363.36 375.447 370.929 372.923 377.309C373.283 377.633 375.339 379.579 378.512 379.435C381.253 379.327 383.02 377.705 383.453 377.309C384.282 372.947 385.076 368.55 385.869 364.153C387.6 354.529 389.151 345.049 390.629 335.678C387.889 336.291 385.148 336.939 382.407 337.588Z" fill="#191919"/>
<path d="M317.927 323.207C318.757 328.721 319.73 334.416 320.848 340.256C322.471 348.726 324.31 356.8 326.258 364.441C325.428 364.946 323.769 365.775 321.497 365.919C319.586 366.027 318.071 365.595 317.206 365.27C316.124 360.152 315.078 354.962 314.032 349.771C312.121 340.147 310.354 330.668 308.659 321.296C311.76 321.909 314.826 322.558 317.927 323.207Z" fill="#191919"/>
<path d="M368.811 322.125C367.837 327.568 366.972 333.263 366.215 339.174C365.169 347.32 364.448 355.106 364.015 362.531C364.628 362.927 366.07 363.756 368.126 363.864C370.326 363.936 371.949 363.071 372.562 362.711C372.201 358.458 372.057 353.736 372.273 348.69C372.706 337.48 374.761 327.82 377.033 320.215C374.293 320.828 371.552 321.477 368.811 322.125Z" fill="#191919"/>
<path d="M432.894 201.522C439.205 212.768 434.337 225.203 422.508 256.093C416.81 270.943 406.388 298.228 391.675 337.12C377.214 342.382 353.268 348.87 323.661 346.816C306.459 345.626 292.034 341.914 281.107 338.093C279.484 335.173 273.859 324.252 278.078 313.655C280.422 307.78 285.146 303.563 295.171 298.589C305.053 293.687 322.471 286.802 347.787 285.541C337.869 236.196 354.855 195.755 381.289 186.42C398.635 180.328 424.203 186.059 432.894 201.522Z" fill="white" stroke="#191919" stroke-width="1.77266" stroke-miterlimit="10"/>
<path d="M430.587 205.595C420.128 218.823 417.748 236.593 413.745 252.488C409.454 269.501 404.513 286.478 397.121 302.445C393.046 311.204 388.249 319.638 382.515 327.424C382.119 328.001 383.056 328.541 383.453 327.965C393.514 314.268 400.619 298.733 406.1 282.729C411.654 266.437 415.332 249.641 419.66 233.025C422.112 223.581 425.249 214.137 431.38 206.388C431.777 205.811 431.019 205.054 430.587 205.595Z" fill="#191919"/>
<path d="M281.324 330.271C305.377 339.102 331.595 341.697 356.911 337.768C364.159 336.651 371.336 334.993 378.368 332.83C379.017 332.614 378.765 331.569 378.079 331.785C353.557 339.354 327.231 340.508 302.132 335.173C295.172 333.695 288.284 331.677 281.612 329.226C280.963 328.974 280.675 330.019 281.324 330.271Z" fill="#191919"/>
<path d="M365.998 301.941C372.057 303.923 377.214 307.924 380.676 313.331C381.036 313.907 381.974 313.367 381.613 312.79C378.007 307.167 372.634 302.986 366.287 300.895C365.602 300.679 365.313 301.724 365.998 301.941Z" fill="#191919"/>
<path d="M257.523 348.618C260.408 352.943 263.293 357.304 266.142 361.629C247.678 378.21 245.297 382.931 246.668 384.085C249.409 386.356 269.063 376.263 271.082 375.218C278.403 371.469 283.92 367.829 287.599 365.234C286.301 361.701 284.57 357.737 282.189 353.556C279.052 348.041 275.59 343.391 272.308 339.607C267.368 342.562 262.427 345.59 257.523 348.618Z" fill="#191919"/>
<path d="M365.421 263.662C366.72 266.473 368.09 270.474 368.306 275.304C368.631 282.585 366.251 288.388 364.448 291.74C363.474 293.002 361.743 295.092 359.183 297.363C359.183 297.363 353.376 302.481 344.144 306.41C334.732 310.447 307.361 315.313 270.18 316.25C271.262 320.864 273.21 326.523 276.672 332.614C278.583 335.966 280.675 338.922 282.73 341.481C281.36 343.283 277.465 347.861 269.712 350.744C262.247 353.52 255.395 353.195 252.69 352.979C248.795 349.411 244.792 345.158 241.078 340.075C230.151 325.045 227.591 310.519 227.122 301.184C229.826 299.237 233.793 296.57 238.986 293.723C249.805 287.775 259.722 284.531 267.872 282.117C281.901 278.008 295.316 275.16 326.185 269.934C335.85 268.312 349.229 266.077 365.421 263.662Z" fill="white" stroke="#191919" stroke-width="1.77266" stroke-miterlimit="10"/>
<path opacity="0.19" d="M331.162 269.861C330.117 276.746 327.159 285.685 318 291.235C309.092 296.642 301.627 294.443 283.776 298.769C270.938 301.868 253.953 305.977 249.228 315.097C244.288 324.684 253.628 338.201 269.964 349.302C271.335 349.122 273.066 348.762 274.905 348.041C279.629 346.167 281.937 343.103 282.803 341.769C280.711 339.246 278.547 336.327 276.564 332.974C272.813 326.703 270.794 320.864 269.64 316.142C288.753 315.349 304.801 313.691 316.99 312.105C331.667 310.195 341.837 308.284 351.538 302.806C359.652 298.228 362.897 293.722 364.051 291.992C367.549 286.694 367.838 281.864 367.982 279.161C368.343 272.565 366.179 267.194 364.376 263.806C353.305 265.824 342.234 267.843 331.162 269.861Z" fill="#6C6D6D"/>
<path opacity="0.19" d="M364.737 264.563C364.015 271.267 361.455 281.864 351.249 290.226C344.974 295.381 338.231 297.687 311.761 304.824C300.076 307.96 285.94 311.672 269.856 315.709C290.304 315.493 306.928 313.799 318.865 312.177C331.234 310.483 337.293 309.005 343.568 306.302C349.518 303.743 361.527 298.552 366.431 287.631C371.156 277.034 366.395 267.519 364.737 264.563Z" fill="#6C6D6D"/>
<path opacity="0.22" d="M269.964 316.25C269.82 321.008 270.036 326.451 270.938 332.434C271.803 338.345 273.21 343.644 274.724 348.257C275.95 347.536 277.357 346.563 278.727 345.374C280.386 343.932 281.612 342.562 282.514 341.373C280.422 338.633 278.294 335.462 276.311 331.893C273.102 326.126 271.19 320.792 269.964 316.25Z" fill="#6C6D6D"/>
<path d="M268.305 369.307C271.082 374.75 273.822 380.193 276.599 385.671C258.857 406.505 256.549 412.416 257.883 413.858C260.515 416.741 279.412 404.018 281.36 402.72C288.392 397.998 293.729 393.421 297.263 390.177C296.001 385.743 294.342 380.769 292.034 375.471C289.041 368.55 285.687 362.711 282.55 357.917C277.789 361.738 273.029 365.523 268.305 369.307Z" fill="#191919"/>
<path d="M372.021 262.545C373.283 266.113 374.581 271.087 374.797 277.179C375.122 286.334 372.814 293.615 371.083 297.832C370.145 299.418 368.487 302.049 366.034 304.933C366.034 304.933 360.481 311.384 351.609 316.322C342.558 321.369 316.232 327.532 280.53 328.686C281.576 334.489 283.415 341.589 286.769 349.231C288.608 353.448 290.628 357.16 292.611 360.368C291.313 362.639 287.562 368.37 280.097 372.01C272.921 375.507 266.358 375.11 263.725 374.786C259.974 370.316 256.116 364.946 252.582 358.566C242.051 339.679 239.599 321.405 239.166 309.69C241.763 307.275 245.585 303.887 250.562 300.319C260.984 292.858 270.469 288.749 278.33 285.721C291.782 280.567 304.728 276.998 334.407 270.402C343.567 268.348 356.478 265.572 372.021 262.545Z" fill="white" stroke="#191919" stroke-width="1.77266" stroke-miterlimit="10"/>
<path opacity="0.19" d="M339.095 270.33C338.086 278.981 335.237 290.191 326.438 297.183C317.891 303.995 310.678 301.22 293.549 306.663C281.215 310.555 264.879 315.746 260.335 327.208C255.575 339.246 264.554 356.259 280.241 370.172C281.576 369.956 283.235 369.487 285.002 368.586C289.546 366.243 291.745 362.387 292.575 360.693C290.555 357.521 288.464 353.844 286.552 349.627C282.946 341.733 280.999 334.417 279.917 328.469C298.309 327.46 313.707 325.406 325.464 323.423C339.6 321.044 349.337 318.629 358.677 311.745C366.467 305.978 369.604 300.319 370.686 298.156C374.04 291.488 374.329 285.433 374.473 282.045C374.797 273.754 372.742 267.014 371.011 262.761C360.372 265.248 349.734 267.771 339.095 270.33Z" fill="#6C6D6D"/>
<path opacity="0.19" d="M371.335 263.662C370.65 272.06 368.198 285.397 358.389 295.921C352.33 302.409 345.875 305.293 320.451 314.268C309.2 318.233 295.64 322.882 280.169 327.965C299.823 327.676 315.835 325.586 327.303 323.531C339.204 321.405 345.046 319.566 351.032 316.178C356.766 312.934 368.27 306.446 373.03 292.678C377.538 279.341 372.958 267.411 371.335 263.662Z" fill="#6C6D6D"/>
<path opacity="0.22" d="M280.278 328.649C280.133 334.633 280.35 341.481 281.215 348.978C282.081 356.439 283.379 363.071 284.858 368.839C286.048 367.901 287.382 366.712 288.716 365.198C290.303 363.396 291.493 361.666 292.359 360.188C290.339 356.728 288.284 352.763 286.408 348.257C283.307 341.049 281.432 334.308 280.278 328.649Z" fill="#6C6D6D"/>
<path d="M266.249 206.532C265.564 206.208 264.194 205.595 264.23 204.91C264.302 203.793 268.016 203.036 270.793 203.072C272.668 203.072 276.13 203.469 280.169 206.28C276.383 207.469 270.793 208.551 266.249 206.532Z" fill="white" stroke="#191919" stroke-width="1.77266" stroke-miterlimit="10"/>
<path d="M352.98 159.783C346.128 158.882 339.961 169.155 339.384 170.092C337.293 173.66 337.04 176.039 335.598 182.563C332.1 198.458 330.225 206.532 325.032 211.398C320.343 215.759 314.862 216.805 313.419 217.021C307.253 217.994 301.663 215.687 290.772 211.038C281.576 207.109 280.458 205.667 275.446 205.09C272.885 204.802 265.42 203.973 260.48 208.767C257.306 211.831 255.9 216.733 257.054 217.742C258.532 219.039 264.591 214.462 264.663 214.57C264.699 214.642 262.86 215.507 261.345 217.381C260.588 218.283 259.29 220.229 259.758 220.734C260.588 221.743 265.673 215.615 271.262 216.697C275.085 217.418 275.806 220.878 280.242 221.527C282.838 221.923 285.11 221.13 286.553 220.445C289.077 223.185 293.188 227.077 299.139 230.249C302.673 232.123 315.15 238.575 330.405 234.827C346.597 230.862 354.747 218.21 357.307 214.246C358.75 211.975 369.352 195.034 364.231 176.039C363.33 172.975 360.048 160.72 352.98 159.783Z" fill="white" stroke="#191919" stroke-width="1.77266" stroke-miterlimit="10"/>
<path opacity="0.25" d="M352.258 159.891C349.914 161.117 354.458 169.623 353.881 181.806C353.34 193.52 348.327 202.171 346.092 206.136C343.062 211.434 339.059 218.355 331.09 222.86C320.379 228.916 307.108 228.014 297.66 223.905C294.847 222.68 291.998 218.715 285.795 216.3C283.09 215.255 280.963 214.822 278.474 214.318C272.38 213.128 266.97 212.047 261.958 214.57C259.578 215.796 257.594 217.67 257.738 217.922C257.883 218.174 260.659 216.769 263.112 215.435C260.155 219.364 259.686 220.481 259.902 220.698C260.155 220.914 261.056 220.085 263.364 218.787C265.852 217.418 267.656 216.444 269.855 216.625C270.973 216.733 271.839 217.093 272.344 217.309C274.327 218.174 274.796 219.184 276.779 220.193C278.005 220.806 279.015 221.058 279.556 221.166C280.71 221.418 283.09 221.743 286.228 220.625C288.968 223.509 301.554 236.269 319.982 236.016C329.467 235.872 336.427 232.34 339.168 230.934C354.206 223.112 360.192 209.236 361.707 205.415C366.395 193.592 368.054 176.075 359.471 165.082C357.415 162.414 353.881 159.062 352.258 159.891Z" fill="#6C6D6D"/>
<path d="M257.702 217.742C259.109 215.651 260.948 213.993 263.148 212.804C263.617 212.552 263.184 211.867 262.751 212.119C260.443 213.381 258.496 215.147 257.017 217.345C256.693 217.778 257.414 218.174 257.702 217.742Z" fill="#191919"/>
<path d="M258.135 213.092C259.542 210.894 261.814 209.74 264.086 208.623C264.554 208.407 264.158 207.686 263.689 207.938C261.273 209.092 258.893 210.353 257.414 212.696C257.162 213.129 257.847 213.525 258.135 213.092Z" fill="#191919"/>
<path opacity="0.29" d="M362.608 172.867C362.068 176.508 361.094 181.77 359.363 187.97C355.973 200.225 352.908 211.254 344.902 220.013C334.985 230.826 321.533 233.782 313.816 234.683C319.55 236.016 324.058 235.764 326.907 235.368C348.544 232.34 360.228 209.092 363.402 198.927C363.943 197.125 365.097 193.412 365.241 188.33C365.493 181.554 363.835 176.111 362.608 172.867Z" fill="#6C6D6D"/>
<path opacity="0.26" d="M271.984 216.264C274.039 217.274 276.852 218.391 280.314 219.04C283.055 219.544 285.507 219.652 287.454 219.58C282.514 222.212 279.953 221.887 278.511 221.022C277.609 220.481 276.6 219.4 273.823 217.49C273.066 216.949 272.416 216.517 271.984 216.264Z" fill="#6C6D6D"/>
<path d="M199.065 275.521C199.065 292.822 199.065 310.159 199.065 327.46C199.065 329.551 202.311 329.551 202.311 327.46C202.311 310.159 202.311 292.822 202.311 275.521C202.311 273.466 199.065 273.43 199.065 275.521Z" fill="#161616"/>
<path d="M258.063 274.836C258.063 277.611 258.063 280.387 258.063 283.162C258.063 285.253 261.309 285.253 261.309 283.162C261.309 280.387 261.309 277.611 261.309 274.836C261.309 272.745 258.063 272.745 258.063 274.836Z" fill="#161616"/>
<path d="M154.276 273.394C171.766 256.922 189.256 240.414 206.783 223.942C235.092 224.446 263.365 224.951 291.674 225.455C287.058 241.459 282.442 257.427 277.826 273.43C236.642 273.394 195.459 273.394 154.276 273.394Z" fill="white" stroke="#191919" stroke-width="1.77266" stroke-miterlimit="10"/>
<path d="M155.321 275.268C186.948 275.268 218.539 275.268 250.166 275.268C259.037 275.268 267.872 275.268 276.744 275.268C278.835 275.268 278.835 272.024 276.744 272.024C245.117 272.024 213.526 272.024 181.899 272.024C173.028 272.024 164.193 272.024 155.321 272.024C153.23 272.024 153.23 275.268 155.321 275.268Z" fill="#161616"/>
<path d="M164.589 274.728C164.589 310.591 164.589 346.455 164.589 382.283C164.589 392.339 164.589 402.36 164.589 412.416C164.589 414.506 167.835 414.506 167.835 412.416C167.835 376.552 167.835 340.688 167.835 304.86C167.835 294.804 167.835 284.784 167.835 274.728C167.835 272.637 164.589 272.637 164.589 274.728Z" fill="#161616"/>
<path d="M263.509 274.728C263.509 310.591 263.509 346.455 263.509 382.283C263.509 392.339 263.509 402.36 263.509 412.416C263.509 414.506 266.754 414.506 266.754 412.416C266.754 376.552 266.754 340.688 266.754 304.86C266.754 294.804 266.754 284.784 266.754 274.728C266.754 272.637 263.509 272.637 263.509 274.728Z" fill="#161616"/>
<path d="M166.212 341.661C191.672 341.661 217.132 341.661 242.592 341.661C249.805 341.661 257.017 341.661 264.23 341.661C266.321 341.661 266.321 338.417 264.23 338.417C238.77 338.417 213.309 338.417 187.849 338.417C180.637 338.417 173.424 338.417 166.212 338.417C164.12 338.417 164.12 341.661 166.212 341.661Z" fill="#161616"/>
<path d="M291.241 225.455C287.13 241.495 282.405 257.39 276.996 273.034C276.527 274.367 278.619 274.908 279.088 273.61C284.497 257.931 289.221 242.072 293.332 226.032C293.657 224.698 291.601 224.122 291.241 225.455Z" fill="#161616"/>
<path d="M118.573 415.948C137.722 415.948 156.835 415.948 175.985 415.948C178.076 415.948 178.076 412.704 175.985 412.704C156.835 412.704 137.722 412.704 118.573 412.704C116.481 412.704 116.481 415.948 118.573 415.948Z" fill="#161616"/>
<path d="M184.026 415.227C188.426 415.227 192.862 415.227 197.261 415.227C199.353 415.227 199.353 411.983 197.261 411.983C192.862 411.983 188.426 411.983 184.026 411.983C181.935 411.983 181.935 415.227 184.026 415.227Z" fill="#161616"/>
<path d="M241.438 415.696C258.676 415.696 275.914 415.696 293.188 415.696C295.279 415.696 295.279 412.452 293.188 412.452C275.95 412.452 258.712 412.452 241.438 412.452C239.346 412.452 239.346 415.696 241.438 415.696Z" fill="#161616"/>
<path d="M304.98 414.542C308.046 414.542 311.111 414.542 314.212 414.542C316.304 414.542 316.304 411.298 314.212 411.298C311.147 411.298 308.082 411.298 304.98 411.298C302.889 411.298 302.889 414.542 304.98 414.542Z" fill="#161616"/>
<path d="M101.191 404.522C108.656 404.522 116.121 404.522 123.55 404.522C125.642 404.522 125.642 401.278 123.55 401.278C116.085 401.278 108.62 401.278 101.191 401.278C99.0997 401.278 99.0997 404.522 101.191 404.522Z" fill="#161616"/>
<path d="M258.929 266.582C236.678 266.005 214.392 265.464 192.141 264.888C205.34 252.272 218.503 239.621 231.702 227.005C246.92 227.798 262.174 228.591 277.393 229.384C271.226 241.819 265.096 254.183 258.929 266.582Z" fill="white" stroke="#191919" stroke-width="1.77266" stroke-miterlimit="10"/>
<path d="M230.944 226.753C217.998 239.26 205.051 251.804 192.105 264.311C191.528 244.27 190.915 224.194 190.338 204.153C203.465 195.863 216.591 187.573 229.718 179.283C230.079 195.106 230.511 210.93 230.944 226.753Z" fill="white" stroke="#191919" stroke-width="1.77266" stroke-miterlimit="10"/>
<path d="M191.528 206.064C192.574 223.906 193.259 241.783 193.62 259.661C193.62 260.022 194.16 260.022 194.16 259.661C193.8 241.783 193.115 223.906 192.069 206.064C192.033 205.739 191.492 205.739 191.528 206.064Z" fill="#191919"/>
<path d="M191.816 206.136C203.897 198.278 215.978 190.421 228.059 182.563C228.348 182.383 228.095 181.914 227.771 182.094C215.69 189.952 203.609 197.81 191.528 205.667C191.239 205.883 191.492 206.352 191.816 206.136Z" fill="#191919"/>
<path d="M227.915 182.527C227.879 196.908 228.311 211.326 229.249 225.672C229.285 226.032 229.826 226.032 229.79 225.672C228.888 211.29 228.42 196.908 228.456 182.527C228.456 182.203 227.915 182.203 227.915 182.527Z" fill="#191919"/>
<path d="M193.98 260.418C205.808 248.992 217.673 237.566 229.501 226.176C229.754 225.924 229.357 225.564 229.105 225.78C217.276 237.206 205.412 248.632 193.583 260.022C193.367 260.274 193.727 260.67 193.98 260.418Z" fill="#191919"/>
<path d="M248.759 254.291C250.959 250.794 253.158 247.262 255.286 243.694C255.466 243.405 254.998 243.117 254.817 243.405C252.69 246.974 250.49 250.506 248.29 254.002C248.074 254.291 248.542 254.579 248.759 254.291Z" fill="#191919"/>
<path d="M255.142 243.586C257.991 243.694 260.84 243.694 263.689 243.55C264.049 243.55 264.049 243.009 263.689 243.009C260.84 243.117 257.991 243.117 255.142 243.045C254.781 243.045 254.781 243.586 255.142 243.586Z" fill="#191919"/>
<path d="M263.328 243.405C261.705 246.938 260.046 250.47 258.388 254.002C258.243 254.327 258.712 254.579 258.856 254.291C260.515 250.758 262.174 247.226 263.797 243.694C263.941 243.333 263.472 243.081 263.328 243.405Z" fill="#191919"/>
<path d="M248.579 254.579C251.752 255.048 255.106 254.831 258.315 254.687C258.676 254.687 258.676 254.146 258.315 254.146C255.178 254.291 251.86 254.507 248.723 254.074C248.362 254.002 248.218 254.543 248.579 254.579Z" fill="#191919"/>
<path d="M260.407 243.441C258.964 247.046 257.306 250.542 255.43 253.93C255.25 254.219 255.719 254.507 255.899 254.219C257.774 250.758 259.469 247.226 260.948 243.586C261.056 243.261 260.551 243.117 260.407 243.441Z" fill="#191919"/>
<path d="M208.153 259.769C216.086 249.965 224.309 240.378 232.783 231.006C233 230.754 232.639 230.357 232.387 230.61C223.912 239.945 215.69 249.533 207.756 259.373C207.54 259.661 207.936 260.022 208.153 259.769Z" fill="#191919"/>
<path d="M217.745 260.382C224.849 250.47 232.35 240.882 240.212 231.583C240.428 231.33 240.068 230.934 239.815 231.186C231.918 240.522 224.417 250.145 217.276 260.094C217.06 260.382 217.529 260.67 217.745 260.382Z" fill="#191919"/>
<path d="M228.059 261.86C234.226 251.551 240.969 241.603 248.254 232.051C248.47 231.763 248.002 231.511 247.785 231.763C240.501 241.315 233.757 251.263 227.59 261.571C227.41 261.86 227.879 262.148 228.059 261.86Z" fill="#191919"/>
<path d="M236.714 262.761C242.772 251.479 249.949 240.846 258.171 231.042C258.387 230.79 258.027 230.393 257.774 230.646C249.516 240.486 242.303 251.155 236.209 262.473C236.065 262.797 236.533 263.085 236.714 262.761Z" fill="#191919"/>
<path d="M212.768 253.93C222 252.957 231.232 254.11 240.428 255.336C240.789 255.372 240.753 254.831 240.428 254.795C231.268 253.57 222.036 252.38 212.768 253.389C212.444 253.426 212.444 253.966 212.768 253.93Z" fill="#191919"/>
<path d="M217.421 248.668C226.148 248.343 234.875 248.992 243.458 250.65C243.782 250.722 243.927 250.181 243.602 250.145C234.983 248.487 226.184 247.839 217.421 248.163C217.096 248.127 217.096 248.668 217.421 248.668Z" fill="#191919"/>
<path d="M221.604 243.586C230.006 243.045 238.409 243.802 246.595 245.82C246.92 245.892 247.064 245.388 246.739 245.316C238.517 243.261 230.078 242.504 221.604 243.045C221.243 243.081 221.243 243.622 221.604 243.586Z" fill="#191919"/>
<path d="M225.931 238.503C234.009 238.539 242.015 239.368 249.913 240.99C250.237 241.063 250.382 240.522 250.057 240.486C242.123 238.864 234.045 238.035 225.931 237.999C225.607 237.963 225.607 238.503 225.931 238.503Z" fill="#191919"/>
<path d="M230.223 233.782C237.904 233.926 245.549 234.827 253.014 236.521C253.339 236.593 253.483 236.088 253.159 236.016C245.622 234.322 237.94 233.385 230.223 233.277C229.862 233.241 229.862 233.782 230.223 233.782Z" fill="#191919"/>
<path d="M254.962 239.26C251.428 244.451 247.93 249.641 244.395 254.831C244.215 255.12 244.684 255.408 244.864 255.12C248.398 249.929 251.896 244.739 255.431 239.549C255.647 239.224 255.178 238.972 254.962 239.26Z" fill="#191919"/>
<path d="M195.242 231.403C199.75 229.492 204.618 230.574 209.379 230.502C213.382 230.465 217.204 229.348 220.63 227.33C220.919 227.149 220.666 226.681 220.342 226.861C216.122 229.348 211.651 230.141 206.818 229.925C202.779 229.745 198.776 229.348 194.954 230.97C194.665 231.078 194.918 231.547 195.242 231.403Z" fill="#191919"/>
<path d="M207.395 229.168C215.113 224.807 218.683 215.615 226.725 211.759C227.05 211.614 226.761 211.146 226.436 211.29C218.358 215.183 214.824 224.338 207.107 228.699C206.818 228.88 207.071 229.348 207.395 229.168Z" fill="#191919"/>
<path d="M217.204 203.468C215.87 202.423 216.086 200.729 216.843 199.395C217.204 198.747 217.745 198.062 218.358 197.665C219.476 196.944 220.522 197.521 221.387 198.278C221.64 198.494 222.036 198.134 221.784 197.882C219.981 196.368 218.286 196.512 216.807 198.458C215.617 200.044 215.004 202.423 216.807 203.865C217.096 204.081 217.493 203.685 217.204 203.468Z" fill="#191919"/>
<path d="M328.277 177.12C318.396 188.078 315.727 200.116 314.285 206.929C311.652 219.544 314.429 224.59 314.61 248.559C314.682 258.76 314.249 267.014 313.924 272.204C316.16 273.934 330.008 284.243 348.508 280.855C362.212 278.368 370.47 269.789 373.067 266.87C373.68 263.446 374.545 258.4 375.555 252.272C380.892 219.22 383.525 202.459 380.207 190.457C378.224 183.176 373.319 171.642 359.399 159.711C353.557 160.936 339.529 164.685 328.277 177.12Z" fill="#EC615B"/>
<path opacity="0.19" d="M338.339 170.488C341.765 180.725 343.604 189.483 344.686 195.899C347.535 212.876 351.826 238.323 339.745 262.977C335.886 270.835 331.379 276.602 328.205 280.17C332.388 281.143 340.683 282.477 350.564 279.918C362.32 276.89 369.677 270.078 372.706 266.978C375.05 253.57 376.926 242.072 378.368 233.097C380.856 217.309 381.433 212.515 381.181 205.775C380.892 197.125 380.496 188.042 375.303 178.238C370.326 168.866 363.33 163.243 359.039 160.36C355.54 160.972 350.6 162.27 345.371 165.298C342.486 167.028 340.142 168.866 338.339 170.488Z" fill="#6C6D6D"/>
<path opacity="0.18" d="M379.306 187.681C378.656 187.717 380.027 197.701 377.899 211.47C373.968 236.953 361.346 254.615 356.478 260.887C352.403 266.113 346.02 273.322 336.68 280.422C340.033 280.927 344.505 281.143 349.626 280.17C361.779 277.899 369.497 270.438 372.454 267.23C373.211 262.833 374.437 255.949 375.988 247.442C379.63 227.546 380.351 225.167 380.928 218.967C382.515 202.063 380.063 187.681 379.306 187.681Z" fill="#6C6D6D"/>
<path d="M264.735 214.462C264.05 213.994 262.679 213.128 262.824 212.408C263.112 211.254 267.259 211.074 270.252 211.579C272.272 211.903 275.95 212.948 279.809 216.589C275.482 217.201 269.243 217.382 264.735 214.462Z" fill="white" stroke="#191919" stroke-width="1.77266" stroke-miterlimit="10"/>
<path d="M366.539 179.932C359.291 177.805 350.816 187.573 350.059 188.51C347.174 191.934 346.488 194.385 343.784 201.018C337.22 217.237 333.794 225.419 327.303 229.673C321.497 233.493 315.402 233.637 313.78 233.637C306.964 233.601 301.338 230.213 290.375 223.437C281.143 217.706 280.206 215.976 274.868 214.534C272.164 213.813 264.23 211.651 258.063 215.868C254.132 218.535 251.716 223.509 252.798 224.771C254.168 226.393 261.525 222.572 261.561 222.716C261.597 222.788 259.433 223.401 257.486 225.131C256.512 225.96 254.781 227.762 255.178 228.411C255.899 229.637 262.463 224.014 268.305 226.104C272.272 227.51 272.488 231.295 277.14 232.772C279.881 233.637 282.477 233.169 284.136 232.7C286.372 236.052 290.159 240.846 296.001 245.208C299.499 247.803 311.832 256.742 328.962 255.408C347.137 254.002 358.173 242 361.599 238.287C363.582 236.16 377.971 220.049 375.771 199.071C375.447 195.647 374.04 182.167 366.539 179.932Z" fill="white" stroke="#191919" stroke-width="1.77266" stroke-miterlimit="10"/>
<path opacity="0.25" d="M365.746 179.932C363.005 180.833 366.431 190.601 363.654 203.397C361.022 215.688 354.098 223.978 350.96 227.762C346.741 232.845 341.223 239.477 331.811 242.865C319.189 247.406 305.016 244.198 295.532 238.251C292.719 236.449 290.339 231.799 284.028 228.159C281.287 226.573 279.088 225.78 276.455 224.807C270.108 222.5 264.41 220.409 258.604 222.248C255.827 223.113 253.339 224.771 253.483 225.059C253.627 225.383 256.837 224.338 259.722 223.365C255.863 227.005 255.142 228.123 255.322 228.411C255.539 228.7 256.693 227.943 259.397 227.005C262.355 225.96 264.41 225.275 266.79 225.852C267.98 226.14 268.846 226.681 269.387 227.005C271.37 228.231 271.695 229.42 273.642 230.826C274.832 231.691 275.914 232.124 276.491 232.34C277.681 232.809 280.205 233.565 283.776 232.917C286.228 236.449 297.588 252.092 317.53 254.976C327.808 256.453 335.922 253.93 339.132 252.885C356.73 247.19 365.638 233.565 367.946 229.781C375.086 218.103 379.954 199.864 372.598 186.744C370.867 183.464 367.621 179.319 365.746 179.932Z" fill="#6C6D6D"/>
<path d="M253.447 224.879C255.359 222.896 257.594 221.455 260.191 220.59C260.696 220.409 260.479 219.652 259.975 219.797C257.27 220.734 254.854 222.248 252.87 224.302C252.51 224.699 253.087 225.275 253.447 224.879Z" fill="#191919"/>
<path d="M254.745 220.049C256.656 217.922 259.325 217.093 261.994 216.336C262.499 216.192 262.282 215.399 261.777 215.543C259.001 216.372 256.188 217.274 254.204 219.472C253.808 219.869 254.385 220.409 254.745 220.049Z" fill="#191919"/>
<path opacity="0.29" d="M374.653 195.431C373.427 199.179 371.444 204.586 368.523 210.858C362.717 223.221 357.488 234.358 347.282 242.252C334.696 251.984 319.622 252.813 311.147 252.416C317.098 254.831 322.038 255.336 325.176 255.408C349.049 255.913 365.782 233.313 370.975 223.149C371.877 221.346 373.752 217.598 374.834 212.263C376.24 205.091 375.411 199.071 374.653 195.431Z" fill="#6C6D6D"/>
<path opacity="0.26" d="M269.171 225.744C271.19 227.15 274.039 228.808 277.681 230.105C280.566 231.114 283.199 231.619 285.29 231.871C279.484 233.782 276.78 233.025 275.373 231.871C274.508 231.15 273.606 229.817 270.902 227.33C270.216 226.645 269.603 226.104 269.171 225.744Z" fill="#6C6D6D"/>
<path d="M310.642 107.231C310.246 109.538 309.849 111.845 309.524 114.259C308.118 124.063 307.541 133.327 307.505 141.941C309.488 141.725 311.436 141.509 313.419 141.329C313.203 143.239 312.59 150.231 317.062 157.152C321.281 163.676 327.339 166.055 329.215 166.704C328.998 170.236 328.818 173.732 328.602 177.264C332.496 173.804 337.798 169.731 344.541 166.091C349.698 163.315 354.567 161.405 358.714 160.108C354.062 154.34 352.295 148.898 351.537 145.762C350.239 140.355 350.491 135.706 350.744 131.597C350.996 127.38 351.609 123.883 352.15 121.432C353.845 113.719 349.41 101.5 340.574 97.1025C331.847 92.7412 318.829 96.4177 310.642 107.231Z" fill="white" stroke="#161616" stroke-width="1.77266" stroke-miterlimit="10"/>
<path d="M312.59 141.581C313.6 141.437 314.645 141.329 315.655 141.22C316.016 141.184 316.016 140.644 315.655 140.68C314.573 140.788 313.527 140.932 312.446 141.076C312.121 141.076 312.265 141.617 312.59 141.581Z" fill="#161616"/>
<path d="M345.118 112.818C340.755 113.935 339.961 117.72 334.444 125.613C328.854 133.615 325.32 138.625 319.009 141.545C314.934 143.419 312.914 142.914 311.111 145.329C308.01 149.51 310.101 156.395 311.941 159.927C314.068 164 317.314 166.451 319.983 168.47C322.543 170.38 324.887 171.641 326.546 172.398C324.779 169.695 324.671 168.866 324.887 168.614C325.464 168.037 327.916 171.137 330.801 170.74C331.631 170.632 333.109 170.164 336.391 165.009C338.627 161.513 340.142 159.098 341.151 155.638C343.351 148.213 340.25 146.194 341.151 136.426C341.296 134.949 342.305 123.378 346.416 122.622C347.895 122.333 349.41 123.559 350.131 124.496C351.645 126.478 351.465 129.65 349.59 132.389C350.203 131.957 356.081 127.992 356.009 121.54C356.009 120.531 355.973 116.818 353.16 114.403C349.951 111.664 345.479 112.745 345.118 112.818Z" fill="#161616" stroke="#161616" stroke-width="1.77266" stroke-miterlimit="10"/>
<path d="M316.052 129.218C316.888 129.218 317.566 128.007 317.566 126.514C317.566 125.021 316.888 123.811 316.052 123.811C315.215 123.811 314.537 125.021 314.537 126.514C314.537 128.007 315.215 129.218 316.052 129.218Z" fill="#161616"/>
<path d="M304.512 130.479C305.348 130.479 306.026 129.269 306.026 127.776C306.026 126.283 305.348 125.073 304.512 125.073C303.675 125.073 302.997 126.283 302.997 127.776C302.997 129.269 303.675 130.479 304.512 130.479Z" fill="#161616"/>
<path d="M302.24 123.343C303.213 122.225 304.728 122.117 305.81 123.198C306.315 123.703 307.072 122.91 306.567 122.441C305.089 121 302.817 121.036 301.446 122.586C301.05 123.126 301.807 123.883 302.24 123.343Z" fill="#161616"/>
<path d="M314.068 121.468C315.331 120.423 316.989 120.567 318.071 121.757C318.54 122.261 319.297 121.504 318.829 121C317.314 119.378 314.97 119.306 313.275 120.711C312.77 121.144 313.527 121.901 314.068 121.468Z" fill="#161616"/>
<path d="M309.416 111.52C309.813 108.925 310.823 104.672 313.599 100.274C314.573 98.7244 316.665 95.4444 319.982 93.2097C326.329 88.9926 336.102 89.3169 343.207 94.5073C350.167 99.5895 353.629 108.673 352.114 117.684C337.869 115.665 323.661 113.611 309.416 111.52Z" fill="#5222D0"/>
<path d="M286.12 111.844C308.01 114.656 329.936 117.467 351.826 120.243C353.881 120.495 353.881 117.251 351.826 116.999C329.936 114.187 308.01 111.376 286.12 108.6C284.064 108.312 284.064 111.556 286.12 111.844Z" fill="#161616"/>
<path d="M327.952 90.5785C333.578 91.804 337.833 96.3456 338.554 101.788C339.204 106.546 337.112 111.376 333.145 114.332C339.384 115.161 345.659 116.026 351.898 116.855C352.222 115.197 352.511 112.673 352.114 109.718C351.176 102.797 347.173 98.364 345.875 97.0304C344.469 95.5886 339.492 90.7587 332.099 90.3262C330.404 90.2541 328.962 90.3983 327.952 90.5785Z" fill="#321693"/>
</svg>
